<?xml version="1.0" encoding="UTF-8" standalone="no"?><svg xmlns="http://www.w3.org/2000/svg" xmlns:xlink="http://www.w3.org/1999/xlink" contentStyleType="text/css" height="699px" preserveAspectRatio="none" style="width:1093px;height:699px;background:#FFFFFF;" version="1.1" viewBox="0 0 1093 699" width="1093px" zoomAndPan="magnify"><defs/><g><!--MD5=[cbf1b6b0d5673c61a83eae31db5dc5d4]
cluster v003--><g id="cluster_v003"><path d="M8.5,6.602 L41.5,6.602 A3.75,3.75 0 0 1 44,9.102 L51,31.6699 L1083.5,31.6699 A2.5,2.5 0 0 1 1086,34.1699 L1086,690.102 A2.5,2.5 0 0 1 1083.5,692.602 L8.5,692.602 A2.5,2.5 0 0 1 6,690.102 L6,9.102 A2.5,2.5 0 0 1 8.5,6.602 " fill="none" style="stroke:#000000;stroke-width:1.5;"/><line style="stroke:#000000;stroke-width:1.5;" x1="6" x2="51" y1="31.6699" y2="31.6699"/><text fill="#000000" font-family="sans-serif" font-size="14" font-weight="bold" lengthAdjust="spacing" textLength="32" x="10" y="23.5679">v003</text></g><!--MD5=[84e3a5e42879fb3231104d3c8e592439]
class Book--><g id="elem_Book"><rect codeLine="3" fill="#F1F1F1" height="181.4754" id="Book" rx="2.5" ry="2.5" style="stroke:#181818;stroke-width:0.5;" width="398" x="672" y="495.602"/><ellipse cx="850.75" cy="511.602" fill="#ADD1B2" rx="11" ry="11" style="stroke:#181818;stroke-width:1.0;"/><path d="M850.5469,518.3364 Q848.0625,518.3364 846.7344,516.6957 Q845.4219,515.0239 845.4219,511.9145 Q845.4219,508.7895 846.7344,507.1332 Q848.0625,505.477 850.5469,505.477 Q851.2656,505.477 851.9219,505.6332 Q852.5625,505.7895 853.125,506.0864 L853.125,508.8051 Q852.7656,508.4614 852.4688,508.2739 Q852.1719,508.0707 851.9063,507.9457 Q851.5938,507.8051 851.2813,507.7426 Q850.9844,507.6801 850.6719,507.6801 Q849.3438,507.6801 848.6563,508.7426 Q847.9688,509.8364 847.9688,511.9145 Q847.9688,514.0082 848.6563,515.0707 Q849.3438,516.1489 850.6719,516.1489 Q851.3125,516.1489 851.9063,515.8676 Q852.2031,515.7426 852.4844,515.5551 Q852.7813,515.352 853.125,515.0239 L853.125,517.7426 Q852.5469,518.0395 851.9063,518.1957 Q851.2813,518.3364 850.5469,518.3364 Z " fill="#000000"/><text fill="#000000" font-family="sans-serif" font-size="14" lengthAdjust="spacing" textLength="32" x="871.25" y="517.034">Book</text><line style="stroke:#181818;stroke-width:0.5;" x1="673" x2="1069" y1="527.602" y2="527.602"/><rect fill="none" height="6" style="stroke:#C82930;stroke-width:1.0;" width="6" x="680" y="539.6359"/><text fill="#000000" font-family="sans-serif" font-size="14" lengthAdjust="spacing" textLength="35" x="692" y="546.5679">int id</text><rect fill="none" height="6" style="stroke:#C82930;stroke-width:1.0;" width="6" x="680" y="558.7039"/><text fill="#000000" font-family="sans-serif" font-size="14" lengthAdjust="spacing" textLength="71" x="692" y="565.6358">String title</text><rect fill="none" height="6" style="stroke:#C82930;stroke-width:1.0;" width="6" x="680" y="577.7718"/><text fill="#000000" font-family="sans-serif" font-size="14" lengthAdjust="spacing" textLength="128" x="692" y="584.7038">int publicationYear</text><rect fill="none" height="6" style="stroke:#C82930;stroke-width:1.0;" width="6" x="680" y="596.8397"/><text fill="#000000" font-family="sans-serif" font-size="14" lengthAdjust="spacing" textLength="108" x="692" y="603.7717">final String type</text><line style="stroke:#181818;stroke-width:0.5;" x1="673" x2="1069" y1="611.8736" y2="611.8736"/><ellipse cx="683" cy="626.9076" fill="#84BE84" rx="3" ry="3" style="stroke:#038048;stroke-width:1.0;"/><text fill="#000000" font-family="sans-serif" font-size="14" lengthAdjust="spacing" textLength="372" x="692" y="630.8396">Book(int id, String title, int publicationYear, String type)</text><ellipse cx="683" cy="645.9755" fill="#84BE84" rx="3" ry="3" style="stroke:#038048;stroke-width:1.0;"/><text fill="#000000" font-family="sans-serif" font-size="14" lengthAdjust="spacing" textLength="66" x="692" y="649.9075">int getId()</text><ellipse cx="683" cy="665.0434" fill="#84BE84" rx="3" ry="3" style="stroke:#038048;stroke-width:1.0;"/><text fill="#000000" font-family="sans-serif" font-size="14" lengthAdjust="spacing" textLength="107" x="692" y="668.9754">String toString()</text></g><!--MD5=[c3f280b58e8dd0683e81b8ec31306a35]
class Author--><g id="elem_Author"><rect codeLine="13" fill="#F1F1F1" height="162.4075" id="Author" rx="2.5" ry="2.5" style="stroke:#181818;stroke-width:0.5;" width="206" x="22" y="505.102"/><ellipse cx="97.75" cy="521.102" fill="#ADD1B2" rx="11" ry="11" style="stroke:#181818;stroke-width:1.0;"/><path d="M97.5469,527.8364 Q95.0625,527.8364 93.7344,526.1957 Q92.4219,524.5239 92.4219,521.4145 Q92.4219,518.2895 93.7344,516.6332 Q95.0625,514.977 97.5469,514.977 Q98.2656,514.977 98.9219,515.1332 Q99.5625,515.2895 100.125,515.5864 L100.125,518.3051 Q99.7656,517.9614 99.4688,517.7739 Q99.1719,517.5707 98.9063,517.4457 Q98.5938,517.3051 98.2813,517.2426 Q97.9844,517.1801 97.6719,517.1801 Q96.3438,517.1801 95.6563,518.2426 Q94.9688,519.3364 94.9688,521.4145 Q94.9688,523.5082 95.6563,524.5707 Q96.3438,525.6489 97.6719,525.6489 Q98.3125,525.6489 98.9063,525.3676 Q99.2031,525.2426 99.4844,525.0551 Q99.7813,524.852 100.125,524.5239 L100.125,527.2426 Q99.5469,527.5395 98.9063,527.6957 Q98.2813,527.8364 97.5469,527.8364 Z " fill="#000000"/><text fill="#000000" font-family="sans-serif" font-size="14" lengthAdjust="spacing" textLength="46" x="118.25" y="526.534">Author</text><line style="stroke:#181818;stroke-width:0.5;" x1="23" x2="227" y1="537.102" y2="537.102"/><rect fill="none" height="6" style="stroke:#C82930;stroke-width:1.0;" width="6" x="30" y="549.1359"/><text fill="#000000" font-family="sans-serif" font-size="14" lengthAdjust="spacing" textLength="35" x="42" y="556.0679">int id</text><rect fill="none" height="6" style="stroke:#C82930;stroke-width:1.0;" width="6" x="30" y="568.2039"/><text fill="#000000" font-family="sans-serif" font-size="14" lengthAdjust="spacing" textLength="83" x="42" y="575.1358">String name</text><line style="stroke:#181818;stroke-width:0.5;" x1="23" x2="227" y1="583.2378" y2="583.2378"/><ellipse cx="33" cy="598.2718" fill="#84BE84" rx="3" ry="3" style="stroke:#038048;stroke-width:1.0;"/><text fill="#000000" font-family="sans-serif" font-size="14" lengthAdjust="spacing" textLength="180" x="42" y="602.2038">Author(int id, String name)</text><ellipse cx="33" cy="617.3397" fill="#84BE84" rx="3" ry="3" style="stroke:#038048;stroke-width:1.0;"/><text fill="#000000" font-family="sans-serif" font-size="14" lengthAdjust="spacing" textLength="66" x="42" y="621.2717">int getId()</text><ellipse cx="33" cy="636.4076" fill="#84BE84" rx="3" ry="3" style="stroke:#038048;stroke-width:1.0;"/><text fill="#000000" font-family="sans-serif" font-size="14" lengthAdjust="spacing" textLength="115" x="42" y="640.3396">String getName()</text><ellipse cx="33" cy="655.4755" fill="#84BE84" rx="3" ry="3" style="stroke:#038048;stroke-width:1.0;"/><text fill="#000000" font-family="sans-serif" font-size="14" lengthAdjust="spacing" textLength="107" x="42" y="659.4075">String toString()</text></g><!--MD5=[28be3cc4e2a027a79614b7e5ec169433]
class BookAuthor--><g id="elem_BookAuthor"><rect codeLine="22" fill="#F1F1F1" height="143.3396" id="BookAuthor" rx="2.5" ry="2.5" style="stroke:#181818;stroke-width:0.5;" width="269" x="315.5" y="514.602"/><ellipse cx="406.75" cy="530.602" fill="#ADD1B2" rx="11" ry="11" style="stroke:#181818;stroke-width:1.0;"/><path d="M406.5469,537.3364 Q404.0625,537.3364 402.7344,535.6957 Q401.4219,534.0239 401.4219,530.9145 Q401.4219,527.7895 402.7344,526.1332 Q404.0625,524.477 406.5469,524.477 Q407.2656,524.477 407.9219,524.6332 Q408.5625,524.7895 409.125,525.0864 L409.125,527.8051 Q408.7656,527.4614 408.4688,527.2739 Q408.1719,527.0707 407.9063,526.9457 Q407.5938,526.8051 407.2813,526.7426 Q406.9844,526.6801 406.6719,526.6801 Q405.3438,526.6801 404.6563,527.7426 Q403.9688,528.8364 403.9688,530.9145 Q403.9688,533.0082 404.6563,534.0707 Q405.3438,535.1489 406.6719,535.1489 Q407.3125,535.1489 407.9063,534.8676 Q408.2031,534.7426 408.4844,534.5551 Q408.7813,534.352 409.125,534.0239 L409.125,536.7426 Q408.5469,537.0395 407.9063,537.1957 Q407.2813,537.3364 406.5469,537.3364 Z " fill="#000000"/><text fill="#000000" font-family="sans-serif" font-size="14" lengthAdjust="spacing" textLength="78" x="427.25" y="536.034">BookAuthor</text><line style="stroke:#181818;stroke-width:0.5;" x1="316.5" x2="583.5" y1="546.602" y2="546.602"/><rect fill="none" height="6" style="stroke:#C82930;stroke-width:1.0;" width="6" x="323.5" y="558.6359"/><text fill="#000000" font-family="sans-serif" font-size="14" lengthAdjust="spacing" textLength="68" x="335.5" y="565.5679">int bookId</text><rect fill="none" height="6" style="stroke:#C82930;stroke-width:1.0;" width="6" x="323.5" y="577.7039"/><text fill="#000000" font-family="sans-serif" font-size="14" lengthAdjust="spacing" textLength="81" x="335.5" y="584.6358">int authorId</text><line style="stroke:#181818;stroke-width:0.5;" x1="316.5" x2="583.5" y1="592.7378" y2="592.7378"/><ellipse cx="326.5" cy="607.7718" fill="#84BE84" rx="3" ry="3" style="stroke:#038048;stroke-width:1.0;"/><text fill="#000000" font-family="sans-serif" font-size="14" lengthAdjust="spacing" textLength="243" x="335.5" y="611.7038">BookAuthor(int bookId, int authorId)</text><ellipse cx="326.5" cy="626.8397" fill="#84BE84" rx="3" ry="3" style="stroke:#038048;stroke-width:1.0;"/><text fill="#000000" font-family="sans-serif" font-size="14" lengthAdjust="spacing" textLength="98" x="335.5" y="630.7717">int getBookId()</text><ellipse cx="326.5" cy="645.9076" fill="#84BE84" rx="3" ry="3" style="stroke:#038048;stroke-width:1.0;"/><text fill="#000000" font-family="sans-serif" font-size="14" lengthAdjust="spacing" textLength="112" x="335.5" y="649.8396">int getAuthorId()</text></g><!--MD5=[dc50d3f2e0d244d4167f4d77c8e6c423]
class LibraryManager--><g id="elem_LibraryManager"><rect codeLine="30" fill="#F1F1F1" height="372.1546" id="LibraryManager" rx="2.5" ry="2.5" style="stroke:#181818;stroke-width:0.5;" width="328" x="286" y="44.602"/><ellipse cx="391.75" cy="60.602" fill="#ADD1B2" rx="11" ry="11" style="stroke:#181818;stroke-width:1.0;"/><path d="M391.5469,67.3364 Q389.0625,67.3364 387.7344,65.6957 Q386.4219,64.0239 386.4219,60.9145 Q386.4219,57.7895 387.7344,56.1332 Q389.0625,54.477 391.5469,54.477 Q392.2656,54.477 392.9219,54.6332 Q393.5625,54.7895 394.125,55.0864 L394.125,57.8051 Q393.7656,57.4614 393.4688,57.2739 Q393.1719,57.0707 392.9063,56.9457 Q392.5938,56.8051 392.2813,56.7426 Q391.9844,56.6801 391.6719,56.6801 Q390.3438,56.6801 389.6563,57.7426 Q388.9688,58.8364 388.9688,60.9145 Q388.9688,63.0082 389.6563,64.0707 Q390.3438,65.1489 391.6719,65.1489 Q392.3125,65.1489 392.9063,64.8676 Q393.2031,64.7426 393.4844,64.5551 Q393.7813,64.352 394.125,64.0239 L394.125,66.7426 Q393.5469,67.0395 392.9063,67.1957 Q392.2813,67.3364 391.5469,67.3364 Z " fill="#000000"/><text fill="#000000" font-family="sans-serif" font-size="14" lengthAdjust="spacing" textLength="108" x="412.25" y="66.034">LibraryManager</text><line style="stroke:#181818;stroke-width:0.5;" x1="287" x2="613" y1="76.602" y2="76.602"/><rect fill="none" height="6" style="stroke:#C82930;stroke-width:1.0;" width="6" x="294" y="88.6359"/><text fill="#000000" font-family="sans-serif" font-size="14" lengthAdjust="spacing" textLength="114" x="306" y="95.5679">List&lt;Book&gt; books</text><rect fill="none" height="6" style="stroke:#C82930;stroke-width:1.0;" width="6" x="294" y="107.7039"/><text fill="#000000" font-family="sans-serif" font-size="14" lengthAdjust="spacing" textLength="141" x="306" y="114.6358">List&lt;Author&gt; authors</text><rect fill="none" height="6" style="stroke:#C82930;stroke-width:1.0;" width="6" x="294" y="126.7718"/><text fill="#000000" font-family="sans-serif" font-size="14" lengthAdjust="spacing" textLength="180" x="306" y="133.7038">List&lt;BookAuthor&gt; relations</text><rect fill="none" height="6" style="stroke:#C82930;stroke-width:1.0;" width="6" x="294" y="145.8397"/><text fill="#000000" font-family="sans-serif" font-size="14" lengthAdjust="spacing" textLength="113" x="306" y="152.7717">Scanner scanner</text><line style="stroke:#181818;stroke-width:0.5;" x1="287" x2="613" y1="160.8736" y2="160.8736"/><ellipse cx="297" cy="175.9076" fill="#84BE84" rx="3" ry="3" style="stroke:#038048;stroke-width:1.0;"/><text fill="#000000" font-family="sans-serif" font-size="14" lengthAdjust="spacing" textLength="116" x="306" y="179.8396">LibraryManager()</text><ellipse cx="297" cy="194.9755" fill="#84BE84" rx="3" ry="3" style="stroke:#038048;stroke-width:1.0;"/><text fill="#000000" font-family="sans-serif" font-size="14" lengthAdjust="spacing" textLength="179" x="306" y="198.9075">void startLibraryManager()</text><rect fill="#F24D5C" height="6" style="stroke:#C82930;stroke-width:1.0;" width="6" x="294" y="211.0434"/><text fill="#000000" font-family="sans-serif" font-size="14" lengthAdjust="spacing" textLength="99" x="306" y="217.9754">void listBooks()</text><rect fill="#F24D5C" height="6" style="stroke:#C82930;stroke-width:1.0;" width="6" x="294" y="230.1114"/><text fill="#000000" font-family="sans-serif" font-size="14" lengthAdjust="spacing" textLength="98" x="306" y="237.0433">void addBook()</text><rect fill="#F24D5C" height="6" style="stroke:#C82930;stroke-width:1.0;" width="6" x="294" y="249.1793"/><text fill="#000000" font-family="sans-serif" font-size="14" lengthAdjust="spacing" textLength="166" x="306" y="256.1113">void addBook(Book book)</text><rect fill="#F24D5C" height="6" style="stroke:#C82930;stroke-width:1.0;" width="6" x="294" y="268.2472"/><text fill="#000000" font-family="sans-serif" font-size="14" lengthAdjust="spacing" textLength="180" x="306" y="275.1792">void addAuthor(Book book)</text><rect fill="#F24D5C" height="6" style="stroke:#C82930;stroke-width:1.0;" width="6" x="294" y="287.3151"/><text fill="#000000" font-family="sans-serif" font-size="14" lengthAdjust="spacing" textLength="207" x="306" y="294.2471">void addAuthor(Author author)</text><rect fill="#F24D5C" height="6" style="stroke:#C82930;stroke-width:1.0;" width="6" x="294" y="306.383"/><text fill="#000000" font-family="sans-serif" font-size="14" lengthAdjust="spacing" textLength="278" x="306" y="313.315">void addRelation(int bookId, int authorId)</text><rect fill="#F24D5C" height="6" style="stroke:#C82930;stroke-width:1.0;" width="6" x="294" y="325.4509"/><text fill="#000000" font-family="sans-serif" font-size="14" lengthAdjust="spacing" textLength="302" x="306" y="332.3829">List&lt;Author&gt; getAuthorsByBookId(int bookId)</text><rect fill="#F24D5C" height="6" style="stroke:#C82930;stroke-width:1.0;" width="6" x="294" y="344.5189"/><text fill="#000000" font-family="sans-serif" font-size="14" lengthAdjust="spacing" textLength="301" x="306" y="351.4508">List&lt;Book&gt; getBooksByAuthorId(int authorId)</text><rect fill="#F24D5C" height="6" style="stroke:#C82930;stroke-width:1.0;" width="6" x="294" y="363.5868"/><text fill="#000000" font-family="sans-serif" font-size="14" lengthAdjust="spacing" textLength="201" x="306" y="370.5188">Book findBookById(int bookId)</text><rect fill="#F24D5C" height="6" style="stroke:#C82930;stroke-width:1.0;" width="6" x="294" y="382.6547"/><text fill="#000000" font-family="sans-serif" font-size="14" lengthAdjust="spacing" textLength="242" x="306" y="389.5867">Author findAuthorById(int authorId)</text><rect fill="#F24D5C" height="6" style="stroke:#C82930;stroke-width:1.0;" width="6" x="294" y="401.7226"/><text fill="#000000" font-family="sans-serif" font-size="14" lengthAdjust="spacing" textLength="113" x="306" y="408.6546">void listAuthors()</text></g><!--MD5=[cf8a16cdb536333f7fa4f6076192e077]
link LibraryManager to Book--><g id="link_LibraryManager_Book"><path codeLine="50" d="M614.28,369.542 C664.7,411.872 718.84,457.332 764.34,495.542 " fill="none" id="LibraryManager-Book" style="stroke:#181818;stroke-width:1.0;"/><text fill="#000000" font-family="sans-serif" font-size="13" lengthAdjust="spacing" textLength="55" x="723" y="461.499">manages</text><text fill="#000000" font-family="sans-serif" font-size="13" lengthAdjust="spacing" textLength="20" x="734.3145" y="483.9359">0..*</text></g><!--MD5=[92b4c1bfa498b33eb7c40c9b66e82908]
link LibraryManager to Author--><g id="link_LibraryManager_Author"><path codeLine="51" d="M285.83,410.162 C255.26,443.422 224.76,476.592 198.68,504.962 " fill="none" id="LibraryManager-Author" style="stroke:#181818;stroke-width:1.0;"/><text fill="#000000" font-family="sans-serif" font-size="13" lengthAdjust="spacing" textLength="55" x="249" y="461.499">manages</text><text fill="#000000" font-family="sans-serif" font-size="13" lengthAdjust="spacing" textLength="20" x="184.7495" y="493.3294">0..*</text></g><!--MD5=[f22605fe9f777d125d4de40ba0c206f8]
link LibraryManager to BookAuthor--><g id="link_LibraryManager_BookAuthor"><path codeLine="52" d="M450,416.632 C450,451.382 450,485.702 450,514.202 " fill="none" id="LibraryManager-BookAuthor" style="stroke:#181818;stroke-width:1.0;"/><text fill="#000000" font-family="sans-serif" font-size="13" lengthAdjust="spacing" textLength="55" x="451" y="461.499">manages</text><text fill="#000000" font-family="sans-serif" font-size="13" lengthAdjust="spacing" textLength="20" x="428.9688" y="502.8266">0..*</text></g><!--MD5=[9a0f88d341d140f36383369f6beb8064]
link BookAuthor to Book--><g id="link_BookAuthor_Book"><path codeLine="53" d="M584.65,586.102 C612.44,586.102 642.26,586.102 671.79,586.102 " fill="none" id="BookAuthor-Book" style="stroke:#181818;stroke-width:1.0;"/><text fill="#000000" font-family="sans-serif" font-size="13" lengthAdjust="spacing" textLength="51" x="602.75" y="578.999">contains</text><text fill="#000000" font-family="sans-serif" font-size="13" lengthAdjust="spacing" textLength="20" x="592.5605" y="600.4739">0..*</text><text fill="#000000" font-family="sans-serif" font-size="13" lengthAdjust="spacing" textLength="7" x="656.8716" y="582.6715">1</text></g><!--MD5=[3f276fd5b1aebd4472e904dda383c967]
link Author to BookAuthor--><g id="link_Author_BookAuthor"><path codeLine="54" d="M228.28,586.102 C255.97,586.102 286.33,586.102 315.44,586.102 " fill="none" id="Author-BookAuthor" style="stroke:#181818;stroke-width:1.0;"/><text fill="#000000" font-family="sans-serif" font-size="13" lengthAdjust="spacing" textLength="51" x="246.25" y="578.999">contains</text><text fill="#000000" font-family="sans-serif" font-size="13" lengthAdjust="spacing" textLength="7" x="236.1217" y="582.3857">1</text><text fill="#000000" font-family="sans-serif" font-size="13" lengthAdjust="spacing" textLength="20" x="287.5344" y="600.4739">0..*</text></g><!--MD5=[e347593fbf058a3b810719db86a30392]
@startuml
package v003 {

    class Book {
        -int id
        -String title
        -int publicationYear
        -final String type
        +Book(int id, String title, int publicationYear, String type)
        +int getId()
        +String toString()
    }

    class Author {
        -int id
        -String name
        +Author(int id, String name)
        +int getId()
        +String getName()
        +String toString()
    }

    class BookAuthor {
        -int bookId
        -int authorId
        +BookAuthor(int bookId, int authorId)
        +int getBookId()
        +int getAuthorId()
    }

    class LibraryManager {
        -List<Book> books
        -List<Author> authors
        -List<BookAuthor> relations
        -Scanner scanner
        +LibraryManager()
        +void startLibraryManager()
        -void listBooks()
        -void addBook()
        -void addBook(Book book)
        -void addAuthor(Book book)
        -void addAuthor(Author author)
        -void addRelation(int bookId, int authorId)
        -List<Author> getAuthorsByBookId(int bookId)
        -List<Book> getBooksByAuthorId(int authorId)
        -Book findBookById(int bookId)
        -Author findAuthorById(int authorId)
        -void listAuthors()
    }

    LibraryManager - - "0..*" Book : manages
    LibraryManager - - "0..*" Author : manages
    LibraryManager - - "0..*" BookAuthor : manages
    Book "1" -l- "0..*" BookAuthor : contains
    Author "1" - -r- "0..*" BookAuthor : contains

}
@enduml

PlantUML version 1.2022.7(Mon Aug 22 19:01:30 CEST 2022)
(GPL source distribution)
Java Runtime: OpenJDK Runtime Environment
JVM: OpenJDK 64-Bit Server VM
Default Encoding: UTF-8
Language: es
Country: ES
--></g></svg>